{
	"asset":{
		"generator":"Khronos glTF Blender I/O v4.1.62",
		"version":"2.0"
	},
	"extensionsUsed":[
		"KHR_materials_specular",
		"KHR_materials_ior"
	],
	"scene":0,
	"scenes":[
		{
			"name":"Scene",
			"nodes":[
				0,
				1,
				2,
				3
			]
		}
	],
	"nodes":[
		{
			"mesh":0,
			"name":"HG_Body",
			"rotation":[
				0.7071068286895752,
				0,
				0,
				0.7071068286895752
			]
		},
		{
			"mesh":1,
			"name":"HG_Eyes",
			"rotation":[
				0.7071068286895752,
				0,
				0,
				0.7071068286895752
			]
		},
		{
			"mesh":2,
			"name":"HG_TeethLower",
			"rotation":[
				0.7071068286895752,
				0,
				0,
				0.7071068286895752
			]
		},
		{
			"mesh":3,
			"name":"HG_TeethUpper",
			"rotation":[
				0.7071068286895752,
				0,
				0,
				0.7071068286895752
			]
		}
	],
	"materials":[
		{
			"doubleSided":true,
			"extensions":{
				"KHR_materials_specular":{
					"specularFactor":0
				},
				"KHR_materials_ior":{
					"ior":1.4500000476837158
				}
			},
			"name":".Human",
			"pbrMetallicRoughness":{
				"baseColorFactor":[
					0.40950798988342285,
					0.27203598618507385,
					0.14725099503993988,
					1
				],
				"metallicFactor":0,
				"roughnessFactor":0.08181799948215485
			}
		},
		{
			"doubleSided":true,
			"name":".HG_Eyes_Outer_FAST",
			"pbrMetallicRoughness":{
				"baseColorFactor":[
					0.800000011920929,
					0.800000011920929,
					0.800000011920929,
					1
				],
				"metallicFactor":0,
				"roughnessFactor":0.4000000059604645
			}
		},
		{
			"doubleSided":true,
			"extensions":{
				"KHR_materials_specular":{
					"specularFactor":0
				},
				"KHR_materials_ior":{
					"ior":1.4500000476837158
				}
			},
			"name":".HG_Eyes_Inner",
			"pbrMetallicRoughness":{
				"baseColorFactor":[
					0.4950000047683716,
					0.4950000047683716,
					0.4950000047683716,
					1
				],
				"metallicFactor":0.5,
				"roughnessFactor":0.7487670183181763
			}
		},
		{
			"doubleSided":true,
			"extensions":{
				"KHR_materials_specular":{
					"specularColorFactor":[
						2.0,
						2.0,
						2.0
					]
				},
				"KHR_materials_ior":{
					"ior":1.4500000476837158
				}
			},
			"name":".HG_Teeth",
			"pbrMetallicRoughness":{
				"metallicFactor":0,
				"roughnessFactor":0
			}
		}
	],
	"meshes":[
		{
			"name":"HG_Body",
			"primitives":[
				{
					"attributes":{
						"POSITION":0,
						"NORMAL":1,
						"TEXCOORD_0":2
					},
					"indices":3,
					"material":0
				}
			]
		},
		{
			"name":"HG_Eyes",
			"primitives":[
				{
					"attributes":{
						"POSITION":4,
						"NORMAL":5,
						"TEXCOORD_0":6
					},
					"indices":7,
					"material":1
				},
				{
					"attributes":{
						"POSITION":8,
						"NORMAL":9,
						"TEXCOORD_0":10
					},
					"indices":11,
					"material":2
				}
			]
		},
		{
			"name":"HG_TeethLower",
			"primitives":[
				{
					"attributes":{
						"POSITION":12,
						"NORMAL":13,
						"TEXCOORD_0":14
					},
					"indices":15,
					"material":3
				}
			]
		},
		{
			"name":"HG_TeethUpper",
			"primitives":[
				{
					"attributes":{
						"POSITION":16,
						"NORMAL":17,
						"TEXCOORD_0":18
					},
					"indices":19,
					"material":3
				}
			]
		}
	],
	"accessors":[
		{
			"bufferView":0,
			"componentType":5126,
			"count":26575,
			"max":[
				0.5997750163078308,
				0.2391279935836792,
				-0.0004830000107176602
			],
			"min":[
				-0.5998579859733582,
				-0.1543480008840561,
				-1.732895016670227
			],
			"type":"VEC3"
		},
		{
			"bufferView":1,
			"componentType":5126,
			"count":26575,
			"type":"VEC3"
		},
		{
			"bufferView":2,
			"componentType":5126,
			"count":26575,
			"type":"VEC2"
		},
		{
			"bufferView":3,
			"componentType":5123,
			"count":151704,
			"type":"SCALAR"
		},
		{
			"bufferView":4,
			"componentType":5126,
			"count":2596,
			"max":[
				0.04907499998807907,
				0.08709099888801575,
				-1.6054949760437012
			],
			"min":[
				-0.04907499998807907,
				0.056485000997781754,
				-1.63496994972229
			],
			"type":"VEC3"
		},
		{
			"bufferView":5,
			"componentType":5126,
			"count":2596,
			"type":"VEC3"
		},
		{
			"bufferView":6,
			"componentType":5126,
			"count":2596,
			"type":"VEC2"
		},
		{
			"bufferView":7,
			"componentType":5123,
			"count":15168,
			"type":"SCALAR"
		},
		{
			"bufferView":8,
			"componentType":5126,
			"count":2820,
			"max":[
				0.049045998603105545,
				0.08503100275993347,
				-1.605523943901062
			],
			"min":[
				-0.049045998603105545,
				0.05651500076055527,
				-1.6349409818649292
			],
			"type":"VEC3"
		},
		{
			"bufferView":9,
			"componentType":5126,
			"count":2820,
			"type":"VEC3"
		},
		{
			"bufferView":10,
			"componentType":5126,
			"count":2820,
			"type":"VEC2"
		},
		{
			"bufferView":11,
			"componentType":5123,
			"count":16512,
			"type":"SCALAR"
		},
		{
			"bufferView":12,
			"componentType":5126,
			"count":3481,
			"max":[
				0.028862999752163887,
				0.094200000166893,
				-1.52593195438385
			],
			"min":[
				-0.028874000534415245,
				0.025033000856637955,
				-1.5531460046768188
			],
			"type":"VEC3"
		},
		{
			"bufferView":13,
			"componentType":5126,
			"count":3481,
			"type":"VEC3"
		},
		{
			"bufferView":14,
			"componentType":5126,
			"count":3481,
			"type":"VEC2"
		},
		{
			"bufferView":15,
			"componentType":5123,
			"count":18684,
			"type":"SCALAR"
		},
		{
			"bufferView":16,
			"componentType":5126,
			"count":3367,
			"max":[
				0.032005999237298965,
				0.0960879996418953,
				-1.5240230560302734
			],
			"min":[
				-0.032005999237298965,
				0.0034169999416917562,
				-1.5691039562225342
			],
			"type":"VEC3"
		},
		{
			"bufferView":17,
			"componentType":5126,
			"count":3367,
			"type":"VEC3"
		},
		{
			"bufferView":18,
			"componentType":5126,
			"count":3367,
			"type":"VEC2"
		},
		{
			"bufferView":19,
			"componentType":5123,
			"count":18396,
			"type":"SCALAR"
		}
	],
	"bufferViews":[
		{
			"buffer":0,
			"byteLength":318900,
			"byteOffset":0,
			"target":34962
		},
		{
			"buffer":0,
			"byteLength":318900,
			"byteOffset":318900,
			"target":34962
		},
		{
			"buffer":0,
			"byteLength":212600,
			"byteOffset":637800,
			"target":34962
		},
		{
			"buffer":0,
			"byteLength":303408,
			"byteOffset":850400,
			"target":34963
		},
		{
			"buffer":0,
			"byteLength":31152,
			"byteOffset":1153808,
			"target":34962
		},
		{
			"buffer":0,
			"byteLength":31152,
			"byteOffset":1184960,
			"target":34962
		},
		{
			"buffer":0,
			"byteLength":20768,
			"byteOffset":1216112,
			"target":34962
		},
		{
			"buffer":0,
			"byteLength":30336,
			"byteOffset":1236880,
			"target":34963
		},
		{
			"buffer":0,
			"byteLength":33840,
			"byteOffset":1267216,
			"target":34962
		},
		{
			"buffer":0,
			"byteLength":33840,
			"byteOffset":1301056,
			"target":34962
		},
		{
			"buffer":0,
			"byteLength":22560,
			"byteOffset":1334896,
			"target":34962
		},
		{
			"buffer":0,
			"byteLength":33024,
			"byteOffset":1357456,
			"target":34963
		},
		{
			"buffer":0,
			"byteLength":41772,
			"byteOffset":1390480,
			"target":34962
		},
		{
			"buffer":0,
			"byteLength":41772,
			"byteOffset":1432252,
			"target":34962
		},
		{
			"buffer":0,
			"byteLength":27848,
			"byteOffset":1474024,
			"target":34962
		},
		{
			"buffer":0,
			"byteLength":37368,
			"byteOffset":1501872,
			"target":34963
		},
		{
			"buffer":0,
			"byteLength":40404,
			"byteOffset":1539240,
			"target":34962
		},
		{
			"buffer":0,
			"byteLength":40404,
			"byteOffset":1579644,
			"target":34962
		},
		{
			"buffer":0,
			"byteLength":26936,
			"byteOffset":1620048,
			"target":34962
		},
		{
			"buffer":0,
			"byteLength":36792,
			"byteOffset":1646984,
			"target":34963
		}
	],
	"buffers":[
		{
			"byteLength":1683776,
			"uri":"omro.bin"
		}
	]
}
