<?xml version="1.0" encoding="utf-8"?>
<!-- Generator: Adobe Illustrator 27.2.0, SVG Export Plug-In . SVG Version: 6.00 Build 0)  -->
<svg version="1.1" id="Layer_1" xmlns="http://www.w3.org/2000/svg"
	xmlns:xlink="http://www.w3.org/1999/xlink" x="0px" y="0px"
	viewBox="0 0 1080 1080" style="enable-background:new 0 0 1080 1080;" xml:space="preserve">
<style type="text/css">
	.st0{fill:#FFFFFF;}
	.st1{fill:none;stroke:#FFFFFF;stroke-width:5;stroke-miterlimit:10;}
	.st2{fill:#212121;}
	.st3{fill:#FF1313;}
	.st4{fill:#EAEAEA;}
</style>
<g>
	<g>
		<g>
			<path class="st2" d="M54.65,512.26c1.75-11.14,5.89-21.6,12.4-31.37c6.51-9.77,14.96-17.66,25.36-23.67
				c10.39-6.01,21.92-9.02,34.57-9.02c11.15,0,20.73,2.35,28.74,7.04c8.01,4.7,14.09,11.08,18.22,19.16
				c4.13,8.08,6.13,17,6.01,26.77v2.82h-29.87v-1.88c-0.63-7.76-3.35-14.12-8.17-19.07c-4.82-4.95-11.24-7.42-19.25-7.42
				c-6.76,0-12.87,1.72-18.32,5.17c-5.45,3.45-9.89,7.95-13.34,13.53c-3.45,5.57-5.67,11.55-6.67,17.94
				c-0.38,2.38-0.56,4.76-0.56,7.14c0,8.39,2.35,15.38,7.04,20.95c4.7,5.57,11.43,8.36,20.19,8.36c8.14,0,15.4-2.44,21.79-7.33
				c6.39-4.88,11.08-11.21,14.09-18.97l0.56-2.07h29.87l-0.75,2.82c-3.13,9.89-8.02,18.88-14.65,26.96
				c-6.64,8.08-14.72,14.5-24.23,19.25c-9.52,4.76-19.85,7.14-31,7.14c-11.27,0-20.88-2.41-28.84-7.23
				c-7.95-4.82-13.97-11.27-18.03-19.35c-4.07-8.08-6.11-17-6.11-26.77C53.71,520.03,54.02,516.39,54.65,512.26z"/>
			<path class="st2" d="M177.69,512.26c1.75-11.14,5.89-21.6,12.4-31.37c6.51-9.77,14.96-17.66,25.36-23.67
				c10.39-6.01,21.92-9.02,34.57-9.02c11.27,0,20.88,2.38,28.84,7.14c7.95,4.76,13.96,11.15,18.03,19.16
				c4.07,8.02,6.1,16.85,6.1,26.49c0,3.38-0.31,7.14-0.94,11.27c-1.76,11.15-5.89,21.64-12.4,31.47
				c-6.51,9.83-14.97,17.75-25.36,23.76c-10.4,6.01-21.92,9.02-34.57,9.02c-11.27,0-20.88-2.41-28.84-7.23
				c-7.95-4.82-13.97-11.27-18.03-19.35c-4.07-8.08-6.11-17-6.11-26.77C176.76,520.03,177.07,516.39,177.69,512.26z M272.56,512.26
				c0.38-2.5,0.56-4.82,0.56-6.95c0-8.39-2.38-15.43-7.14-21.13c-4.76-5.7-11.52-8.55-20.29-8.55c-6.76,0-12.87,1.72-18.32,5.17
				c-5.45,3.45-9.89,7.95-13.34,13.53c-3.45,5.57-5.67,11.55-6.67,17.94c-0.38,2.38-0.56,4.76-0.56,7.14
				c0,8.39,2.35,15.38,7.04,20.95c4.7,5.57,11.43,8.36,20.19,8.36c6.76,0,12.87-1.69,18.32-5.07c5.45-3.38,9.92-7.86,13.43-13.43
				C269.3,524.63,271.56,518.65,272.56,512.26z"/>
			<path class="st2" d="M369.49,500.24l42.08-49.59h24.98l-19.54,123.42h-28.37l11.65-73.64l-22.73,26.3h-25.92l-14.28-26.3
				l-11.65,73.64h-28.55l19.54-123.42h24.8L369.49,500.24z"/>
			<path class="st2" d="M427.54,574.06l19.54-123.42h85.1c10.27,0,18.1,2.85,23.48,8.55c5.38,5.7,8.08,13.06,8.08,22.07
				c0,2.38-0.19,4.82-0.56,7.33c-1.13,6.76-3.57,12.93-7.33,18.5c-3.76,5.57-8.71,10.02-14.84,13.34
				c-6.14,3.32-13.03,4.98-20.66,4.98H463.8l-7.7,48.65H427.54z M467.93,499.11h56.54c2.63,0,4.85-0.88,6.67-2.63
				c1.81-1.75,2.91-4.01,3.29-6.76l0.56-3.38c0.12-0.5,0.19-1.25,0.19-2.25c0-2.25-0.63-4.01-1.88-5.26
				c-1.25-1.25-3.01-1.88-5.26-1.88H471.5L467.93,499.11z"/>
			<path class="st2" d="M544.01,574.06l68.57-123.42h38.13l29.3,123.42H649.4l-7.14-30.24H590.6l-16.34,30.24H544.01z
				 M604.69,517.52h32.12l-10.14-39.45L604.69,517.52z"/>
			<path class="st2" d="M680.4,535.93l0.38-2.44h28.37l-0.38,2.44c-0.75,4.88,2.07,8.58,8.45,11.08c5.01,2,11.15,3.01,18.41,3.01
				c8.27,0,15.03-0.94,20.29-2.82c6.76-2.5,10.58-6.45,11.46-11.83c0.63-4.63-2.38-7.76-9.02-9.39c-2.76-0.75-6.14-1.25-10.14-1.5
				c-2.38-0.12-5.51-0.19-9.39-0.19c-14.91,0-26.8-2-35.69-6.01c-8.89-4.01-13.34-11.71-13.34-23.11c0-2.25,0.19-4.7,0.56-7.33
				c2.25-14.15,9.08-24.29,20.48-30.43c11.39-6.13,25.05-9.2,40.95-9.2c8.64,0,16.72,1.22,24.23,3.66
				c7.51,2.44,13.62,6.23,18.32,11.37c4.7,5.14,7.04,11.58,7.04,19.35c0,1.88-0.19,3.88-0.56,6.01l-0.38,2.63h-28.37l0.38-2.63
				c0.75-4.76-1.69-8.39-7.33-10.9c-5.01-2.13-10.83-3.19-17.47-3.19c-7.51,0-13.65,0.88-18.41,2.63
				c-7.02,2.38-10.52,6.39-10.52,12.02c0,3.63,2.82,6.08,8.45,7.33c2.63,0.63,5.76,1.07,9.39,1.32c2.13,0.13,5.01,0.19,8.64,0.19
				c15.4,0,27.8,2.07,37.2,6.2c9.39,4.13,14.09,12.09,14.09,23.86c0,2.25-0.19,4.7-0.56,7.33c-2.38,14.65-9.55,25.17-21.51,31.56
				c-11.96,6.39-26.27,9.58-42.92,9.58c-8.64,0-16.88-1.19-24.7-3.57c-7.83-2.38-14.28-6.17-19.35-11.37
				c-5.07-5.2-7.61-11.74-7.61-19.63C679.83,539.94,680.02,537.93,680.4,535.93z"/>
			<path class="st2" d="M794.61,535.93l0.38-2.44h28.37l-0.38,2.44c-0.75,4.88,2.07,8.58,8.45,11.08c5.01,2,11.15,3.01,18.41,3.01
				c8.27,0,15.03-0.94,20.29-2.82c6.76-2.5,10.58-6.45,11.46-11.83c0.63-4.63-2.38-7.76-9.02-9.39c-2.76-0.75-6.14-1.25-10.14-1.5
				c-2.38-0.12-5.51-0.19-9.39-0.19c-14.91,0-26.8-2-35.69-6.01c-8.89-4.01-13.34-11.71-13.34-23.11c0-2.25,0.19-4.7,0.56-7.33
				c2.25-14.15,9.08-24.29,20.48-30.43c11.39-6.13,25.05-9.2,40.95-9.2c8.64,0,16.72,1.22,24.23,3.66
				c7.51,2.44,13.62,6.23,18.32,11.37c4.7,5.14,7.04,11.58,7.04,19.35c0,1.88-0.19,3.88-0.56,6.01l-0.38,2.63h-28.37l0.38-2.63
				c0.75-4.76-1.69-8.39-7.33-10.9c-5.01-2.13-10.83-3.19-17.47-3.19c-7.51,0-13.65,0.88-18.41,2.63
				c-7.02,2.38-10.52,6.39-10.52,12.02c0,3.63,2.82,6.08,8.45,7.33c2.63,0.63,5.76,1.07,9.39,1.32c2.13,0.13,5.01,0.19,8.64,0.19
				c15.4,0,27.8,2.07,37.2,6.2c9.39,4.13,14.09,12.09,14.09,23.86c0,2.25-0.19,4.7-0.56,7.33c-2.38,14.65-9.55,25.17-21.51,31.56
				c-11.96,6.39-26.27,9.58-42.92,9.58c-8.64,0-16.88-1.19-24.7-3.57c-7.83-2.38-14.28-6.17-19.35-11.37
				c-5.07-5.2-7.61-11.74-7.61-19.63C794.05,539.94,794.23,537.93,794.61,535.93z"/>
		</g>
	</g>
	<g>
		<g>
			<path class="st3" d="M871.91,490.78h2.02c0.86,0.18,1.28,0.64,1.28,1.38c0,1.83-1.99,7.34-5.96,16.51h157.31l3.3,0.73v1.93
				c0,1.35-4.01,2.02-12.02,2.02h-2.57l-1.93-1.38H867.32c0,0.73-16.97,40.6-50.91,119.61c0.92,0,1.38,0.64,1.38,1.93
				c-2.75,6.11-5.41,9.17-7.98,9.17c-2.2-0.25-3.3-0.89-3.3-1.93l54.94-128.78h-42.38c-0.86,0-1.28-0.46-1.28-1.38
				c0.49-1.28,1.83-1.93,4.04-1.93H862c0.73,0,3.61-5.72,8.62-17.15L871.91,490.78z"/>
			<path class="st3" d="M877.5,522.42h1.19c3.61,0.31,5.41,1.83,5.41,4.59c0,2.45-4.86,5.11-14.58,7.98c-2.2,4.65-3.3,7.71-3.3,9.17
				h0.64c5.32-0.43,12.57-4.59,21.74-12.47h2.11c0.79,0.06,1.19,0.46,1.19,1.19v1.38c-8.81,8.81-16.51,13.21-23.12,13.21h-3.85
				c-3.12,0-4.68-1.31-4.68-3.94c0-2.32,1.1-4.95,3.3-7.89l-0.64-1.38v-1.38c0.92,0,4.22-3.06,9.91-9.17L877.5,522.42z
				 M874.84,529.03h0.55l2.75-2.75C876.13,527.19,875.03,528.11,874.84,529.03z"/>
			<path class="st3" d="M906.3,524.9h1.93c0.67,0,1.31,0.64,1.93,1.93c-3,5.99-5.38,11.28-7.15,15.87h0.55
				c7.64-7.89,12.5-11.83,14.58-11.83c0.92,0.43,1.56,0.64,1.93,0.64v1.93c-8.81,9.72-14.95,14.58-18.44,14.58h-1.38
				c-2.57,0-3.85-1.1-3.85-3.3c0.37-0.92,0.55-1.59,0.55-2.02c-5.69,5.32-9.85,7.98-12.48,7.98h-3.3c-2.69,0-4.04-1.34-4.04-4.04
				c0-4.83,4.86-10.79,14.58-17.89h4.68c1.41,0,2.94,0.7,4.59,2.11C901.96,528.72,903.74,526.73,906.3,524.9z M894.38,532.05
				c-7.46,6.42-11.19,11.53-11.19,15.32c2.33-0.67,7.37-5.32,15.13-13.94C897.16,533.43,895.85,532.97,894.38,532.05z"/>
			<path class="st3" d="M944.55,516.09h4.04c1.28,0.49,1.93,1.83,1.93,4.04v1.19c0,5.69-4.19,18.5-12.57,38.43h-2.57
				c-0.67,0-1.32-0.7-1.93-2.11c7.89-19.26,11.83-30.91,11.83-34.95v-0.64h-0.73c-7.16,13.21-11.56,20.03-13.21,20.46h-3.94
				c-0.86,0-1.28-0.46-1.28-1.38c0-1.83,1.34-6.24,4.04-13.21v-0.55h-0.73c-5.75,11.19-9.51,17.12-11.28,17.79h-3.94
				c-0.86,0-1.28-0.43-1.28-1.28c0-9.05,1.74-13.91,5.23-14.58h0.73c0.92,0.12,1.38,0.58,1.38,1.38v0.55c0,1.04-0.25,1.96-0.73,2.75
				v0.55h0.73c3.55-8.32,7.25-12.47,11.1-12.47h2.11c1.28,0,1.93,1.96,1.93,5.87h0.64C937.86,523.28,940.7,519.33,944.55,516.09z"/>
		</g>
	</g>
</g>
</svg>